<svg id="圖層_1" data-name="圖層 1" xmlns="http://www.w3.org/2000/svg" viewBox="0 0 1000 1000"><defs><style>.cls-1{fill:#252424;opacity:0.74;}.cls-2{font-size:180px;font-family:LucidaHandwriting-Italic, Lucida Handwriting;font-style:italic;}.cls-2,.cls-3{fill:#fff;}</style></defs><title>CF</title><rect class="cls-1" width="1000" height="1000"/><text class="cls-2" transform="translate(196.09 534.37) scale(0.81 1)">Coffee</text><path class="cls-3" d="M709.2,557.36h22.66a11.42,11.42,0,0,0,11.34-11.49H747a15.33,15.33,0,0,0,0-30.66H700.7a2.85,2.85,0,0,0-2.84,2.88v27.78A11.42,11.42,0,0,0,709.2,557.36ZM747,522.88a7.66,7.66,0,0,1,0,15.32H743.2V522.88Zm5.64,46H692.23c-5.62,0-7.2-7.66-4.25-7.66h68.86c2.95,0,1.4,7.66-4.23,7.66Z"/></svg>