<svg id="圖層_1" data-name="圖層 1" xmlns="http://www.w3.org/2000/svg" xmlns:xlink="http://www.w3.org/1999/xlink" viewBox="0 0 1000 1000"><defs><style>.cls-1{fill:#252424;opacity:0.74;}.cls-2{fill:url(#未命名漸層_3);}.cls-3{fill:#fff;}.cls-4{fill:url(#未命名漸層_8);}.cls-5{fill:url(#未命名漸層_8-2);}</style><linearGradient id="未命名漸層_3" x1="49.48" y1="479.15" x2="1040.97" y2="479.15" gradientUnits="userSpaceOnUse"><stop offset="0" stop-color="#fff"/><stop offset="0.05" stop-color="#f7f7f7"/><stop offset="0.12" stop-color="#e0e0e0"/><stop offset="0.21" stop-color="#bbb"/><stop offset="0.32" stop-color="#888"/><stop offset="0.43" stop-color="#484848"/><stop offset="0.55"/></linearGradient><linearGradient id="未命名漸層_8" x1="38.18" y1="399.91" x2="882.5" y2="399.91" gradientUnits="userSpaceOnUse"><stop offset="0" stop-color="#fff"/><stop offset="0.07" stop-color="#f7f7f7"/><stop offset="0.19" stop-color="#e0e0e0"/><stop offset="0.33" stop-color="#bcbcbc"/><stop offset="0.49" stop-color="#898989"/><stop offset="0.55" stop-color="#757575"/></linearGradient><linearGradient id="未命名漸層_8-2" x1="379.09" y1="673.91" x2="945" y2="673.91" xlink:href="#未命名漸層_8"/></defs><title>KS</title><rect class="cls-1" width="1000" height="1000"/><path class="cls-2" d="M136.83,376.07c-9,16.65-16.92,21.66-21.7,21.66-4.41,0-8.09-4.1-14.34-21.43-4.23-11.63-8.46-23.49-11.77-34C81.48,353,77.43,359,76.14,366.26c-2,10.49-2.94,17.56-4.59,26.91a82.67,82.67,0,0,0-13.24,4.56L57,396.36C64.74,352.58,76.14,286.68,80.92,255c1.11-8,.92-9.58-12.5-10.49l1.1-5.7c14.9-2.51,25.2-7.76,27.59-7.76,1.84,0,2,2.28,1.1,6.85C92.69,268,85.34,310.39,79.09,345.51c10.29-13.91,37-53.36,50.2-53.36,5.33,0,8.46,3.19,8.46,7.52,0,3.65-2.39,10.27-5.52,13.69-2,2.05-2.94,2.28-4.59.91-1.84-1.6-5.15-5-8.83-5-4,0-14.53,12.77-20.6,21.21,3.13,10.26,9.38,26.45,14.16,37.86,4,10,6.62,14.13,9.38,14.13,2.21,0,6.25-3,11.95-11.63Z"/><path class="cls-2" d="M230.43,374.47c-9.74,16-21,23.26-26.3,23.26-5,0-7.54-5.47-4-24.17,3.31-16.19,6.44-32.38,9.19-46.75C212.23,312,211.49,307,206.89,307c-6.07,0-20.23,12.77-32.73,36.49-3.31,6.16-4.78,12.09-6.25,19.15-1.84,8.9-4.23,21.21-5.7,30.56a80.62,80.62,0,0,0-13.06,4.56l-1.29-1.59c5.15-24.86,10.48-52.68,15.08-78,1.29-7.07.55-9.13-.92-9.13-2,0-6.62,5-11.22,10.49l-2.57-5.92c8.46-13.23,18-21.44,24.09-21.44,5.33,0,6.8,8,2.94,27.82l-2.57,13.46c16.36-26.46,32.92-41.28,43.95-41.28,6.07,0,11.77,5.24,5.88,35.8-2.39,12.54-5.88,30.1-8.64,44.47-1.1,6.16-1.1,8.89.18,8.89,1.66,0,7-3.64,13.61-12.31Z"/><path class="cls-2" d="M317.6,327.72c0,23.72-9.56,48.12-25.75,60.89-6.62,5-14.34,9.12-22.62,9.12-17.47,0-24.64-17.33-24.64-35.57,0-31.47,13.61-54.05,29.61-63.85,5.88-3.65,13.42-6.16,18.94-6.16C308.59,292.15,317.6,304.69,317.6,327.72Zm-57.38,31.93c0,17.1,5.15,28.51,15.26,28.51,17.48,0,26.67-34.9,26.67-59.52,0-18.93-6.62-26.91-15.45-26.91C268.31,301.73,260.22,336.16,260.22,359.65Z"/><path class="cls-2" d="M330.28,314.5c6.81-11.63,16.74-22.35,22.62-22.35,5.7,0,7.36,7.75,7.73,27.14.36,16.64.36,37.4.18,49.94,11.59-22.58,25-48.35,35.86-73.2h4.78c1.29,24.4,3.31,53.13,5.33,78.67,8.83-13.45,26.67-43.33,26.85-57.47,0-4.78-1.84-8.43-2.75-10.94-.74-1.83-1.11-3.19-.56-5,1.47-4.79,7.18-9.12,10.49-9.12,4.59,0,7,5.24,7,13,0,6.16-1.47,12.54-4.78,20.07-8.27,19.15-27.22,48.57-42.48,72.51H395.2c-1.29-19.84-3.13-48.11-5-70.92-12,24.86-26.48,51.08-36.41,70.92h-5.15c0-18.24,0-51.08-1.29-75.25-.55-9.35-1.28-13.68-2.94-13.68-1.47,0-5,3-11,11.17Z"/><path class="cls-2" d="M489.72,374.24c-9.2,15.28-21.33,23.49-26.67,23.49-4.59,0-7.35-4.56-3.67-26.45,6.62-39,13.79-80.27,19.67-115.39,1.47-9.12.92-10-5.7-10.72-2-.23-5.33-.68-6.8-.68l1.1-5.93c7.91-1.14,17.29-3.42,22.44-5.7,3.31-1.6,4.41-1.83,5.51-1.83,1.66,0,1.66,2.06.74,7.3-8.28,43.79-17.29,95.78-23.36,133.86-1.1,6.39-.92,8.44.56,8.44,1.65,0,6.8-3.19,13.42-12.09Z"/><path class="cls-2" d="M524.84,397.73c-8.82,0-20.78-6.38-20.78-34,0-21.2,7.36-46.52,21.89-59.74,8.27-7.3,16.91-11.86,24.82-11.86,10.48,0,16.37,8.21,16.37,18.24,0,22.81-27,33.53-47.63,38.09-.18,2.73-.37,7.29-.37,9.57,0,13.23,2.94,26,14.35,26,8.27,0,18.2-6.38,27.21-18l2.76,5.7C548.57,393.17,534,397.73,524.84,397.73ZM520.25,341c26.66-5.93,32.91-16.42,33.1-26.91,0-7.75-3.68-12.08-9.57-12.08C538.27,302,525.58,307,520.25,341Z"/><path class="cls-2" d="M660.56,375.16c-9,14.59-20.6,22.8-25.75,22.8-5.33,0-7.72-5.47-4-27.14L633,358.05C622.31,377.44,605,398,592,398c-7.17,0-14-8-14-29.42,0-20.29,7.54-45.38,21.51-60,7.91-8.67,22.25-16.19,30.71-16.19,4.23,0,9.75.68,13.43,3l6.43-39.22c1.48-9.12.19-10-6.62-10.72-1.83-.23-5.7-.46-7-.46l1.1-6.15a102.76,102.76,0,0,0,23.35-5.93c2.76-.91,4.23-1.6,5.34-1.6,1.47,0,1.84,2.05.92,6.84-8.46,44.93-17.11,92.36-23.36,134.55-.92,6.16-.18,8.66,1.1,8.66,2.21,0,6.81-3.42,13.43-12.08Zm-31.63-21.9c3.67-6.38,6.62-13.22,8.64-24.17l3.68-19.61c-2.58-3.65-8.83-7.07-17.66-7.07-21.15,0-30.16,37.63-30.16,61.12,0,12.77,2.76,19.38,7.73,19.38C608.7,382.91,619.55,370.14,628.93,353.26Z"/><path class="cls-2" d="M697.33,367.4c-2.94,3.42-4.78,5.7-4.78,8.44,0,3.65,3.68,7.75,14.71,14.37C727.49,401.84,733,409.36,733,419.4c0,19.15-25.93,35.57-44.5,35.57s-34.39-11.86-34.39-26.45c.18-9.58,10.85-19.61,31.26-34.21-4.78-3.65-6.44-7.75-6.25-10.94,0-3.88,4.41-10,12.69-16.42Zm21.89,59.52c0-4.79-1.66-10-8.83-15.5a172.51,172.51,0,0,0-20-13c-14.53,10-20.79,18.47-20.79,26.45,0,11.86,12.33,20.3,26.12,20.3C710.21,445.17,719.22,436.27,719.22,426.92Zm-44.51-85.51c0-17.79,8.1-33.53,18.21-41.05,6.8-5.25,15.08-8.21,20.23-8.21,5.88,0,11.4,1.82,15.63,6.16,10.48,0,17.1-2.51,20.6-5.25l1.28,5.25c-5.33,8-11.4,10.26-17.1,11.17A57.62,57.62,0,0,1,734.67,320c0,16.42-6.44,29-12.88,35.35-7.72,8-18,13.45-27.77,13.22C681.33,368.32,674.71,355.77,674.71,341.41Zm46.16-18.7c0-14.14-4.59-22.12-12.69-22.12-10.85,0-19.49,17.56-19.49,37.85,0,13.68,5.33,21,12.14,21C712.05,359.42,720.87,343.23,720.87,322.71Z"/><path class="cls-2" d="M773.46,397.73c-8.82,0-20.78-6.38-20.78-34,0-21.2,7.36-46.52,21.89-59.74,8.27-7.3,16.92-11.86,24.82-11.86,10.49,0,16.37,8.21,16.37,18.24,0,22.81-27,33.53-47.63,38.09-.18,2.73-.37,7.29-.37,9.57,0,13.23,3,26,14.35,26,8.27,0,18.2-6.38,27.22-18l2.75,5.7C797.19,393.17,782.66,397.73,773.46,397.73ZM768.87,341C795.53,335,801.79,324.53,802,314c0-7.75-3.68-12.08-9.56-12.08C786.89,302,774.2,307,768.87,341Z"/><path class="cls-2" d="M451.27,578.12c0,3.87-2.57,9.12-5.7,10.94-1.65.91-2.76.46-4.23-1.59-5-7.07-9.56-10.27-13.79-10.27-4.78,0-9.93,4.79-9.93,13,0,7.53,5.52,13,12.14,19.39,11,10.71,15.81,16.64,15.81,26.68,0,18.7-19.12,35.12-34,35.12-8.83,0-17.29-7.53-17.29-15.51,0-5,4.42-11.17,7.54-11.63,1.29-.23,2,.68,3.13,2.28,4.6,8.21,10.11,13.23,16.18,13.23,7.54,0,12.14-6.85,12.14-14.14,0-5.48-2-11-10.67-19.84-8.64-8.44-16.18-14.82-16-26.68,0-6.85,2.21-14.37,9.57-22.12,5.88-6.62,14.34-11.18,20.59-11.18C444.84,565.8,451.27,571.73,451.27,578.12Z"/><path class="cls-2" d="M472.05,512.21a92,92,0,0,0,22.62-5.7c2.76-1.37,4.05-1.82,5.15-1.82,1.47,0,1.84,2.28.92,7.52-5.15,29.19-11.77,65.45-16.92,94.64,14.71-25.31,33.29-41.05,44.69-41.05,6.25,0,12.14,3.65,6.44,32.61-2.58,14.14-6.07,33.3-9,47.66-1.28,6.16-1.1,8.67.37,8.67,1.66,0,6.07-2.74,12.69-11.4l2.76,5.47c-9,15.28-21,22.58-26.3,22.58-5.15,0-6.8-7.07-3.68-23.26,3.31-15.74,7.18-36,10.12-51.31,2.57-13,1.1-16.42-2.58-16.42-6.8,0-20.59,10.94-32.91,36a64.33,64.33,0,0,0-6.62,19.15c-1.66,9.13-4,22.58-5.52,31.47A90.66,90.66,0,0,0,461,671.39l-1.29-1.6c7.91-44,17.47-99.66,23.91-140.47,1.47-9.35.37-9.58-5.15-10.27-2-.22-6.07-.68-7.54-.68Z"/><path class="cls-2" d="M635.17,648.13c-9,15-20.41,23.26-25.56,23.26s-7.36-5.25-4.05-26l2.57-15.74a121.62,121.62,0,0,1-22.06,30.79c-5.89,5.93-12.88,10.95-18.94,10.95-6.44,0-11.77-9.81-11.77-28.28,0-21.44,7.9-45.15,20.41-59.29,9.56-11,22.8-18,35.12-18,9.38,0,17.84,3.42,21.34,3.88-3.31,14.37-9.75,49.48-13.24,75.25-.92,6.39-.56,8.9.91,8.9,2.21,0,6.07-3,12.69-11.41ZM601.88,629.2a89.73,89.73,0,0,0,10.67-27.37c1.84-8.66,3.49-16.87,4-22.35a31.09,31.09,0,0,0-14-3.64c-21.7,0-31.82,34.66-31.82,64.3,0,9.13,2,15.06,5.7,15.06C582.21,655.2,590.3,648.13,601.88,629.2Z"/><path class="cls-2" d="M649,587.47c9.19-13.46,18.94-21.67,24.27-21.67,6.26,0,5.7,12.09,2.21,31.7l-1.1,6.16c9.93-21,22.62-37.86,30-37.86,4.42,0,8.46,4.56,8.46,10.26,0,5-3.86,11.86-7.17,14.6-1.66,1.37-3.13,1.37-4.05,0-2-2.74-3.86-6.61-6.06-6.61-4.23,0-13.24,16.19-17.48,25.54-6.43,14.36-9.74,35.34-13.42,57.24a86.48,86.48,0,0,0-13.42,4.56l-1.29-1.6c4.41-21,10.85-55.64,13.42-72.29,2-12.77,1.47-14.82.19-14.82-1.84,0-6.44,3.65-12,10.49Z"/><path class="cls-2" d="M756,648.81c-9.2,15.28-20.78,22.58-26.3,22.58-4.78,0-6.81-5.93-3.31-24.18,2.94-15.05,8.09-39.45,11.58-57.92.74-4.33.56-6.38-.55-6.38-1.84,0-7.35,4.56-12.13,10.26l-2.4-5.93c8.65-11.63,21.15-21.44,27-21.44,4.6,0,4.78,7.76,1.47,24.63-3.5,16.42-7.91,39.45-11.22,55.64-1.29,6.16-1.29,8.67,0,8.67,1.84,0,6.81-3.19,13.24-11.63Zm5.15-119.49c0,7.06-4,13.22-9.75,13.22-4.6,0-8.09-4.1-8.09-10.26,0-5.93,3.68-13.45,10.3-13.45C758.56,518.83,761.14,523.61,761.14,529.32Z"/><path class="cls-2" d="M855.1,648.13c-9.74,16-21,23.26-26.29,23.26-5,0-7.54-5.48-4-24.18,3.31-16.19,6.44-32.38,9.2-46.75,2.94-14.82,2.2-19.83-2.39-19.83-6.07,0-20.23,12.77-32.74,36.48-3.31,6.16-4.78,12.09-6.25,19.16-1.84,8.89-4.23,21.21-5.7,30.56a79.08,79.08,0,0,0-13.06,4.56l-1.29-1.6c5.15-24.86,10.49-52.68,15.08-78,1.29-7.07.56-9.12-.92-9.12-2,0-6.62,5-11.21,10.49l-2.58-5.93c8.46-13.23,18-21.44,24.09-21.44,5.34,0,6.81,8,2.94,27.82l-2.57,13.46c16.37-26.45,32.92-41.28,43.95-41.28,6.07,0,11.77,5.25,5.89,35.8-2.39,12.55-5.89,30.11-8.65,44.47-1.1,6.16-1.1,8.9.19,8.9,1.65,0,7-3.65,13.61-12.32Z"/><path class="cls-2" d="M893,641.06c-3,3.42-4.78,5.7-4.78,8.43,0,3.65,3.67,7.76,14.71,14.37,20.23,11.63,25.74,19.16,25.74,29.19,0,19.16-25.93,35.58-44.5,35.58s-34.39-11.86-34.39-26.46C850,692.59,860.62,682.56,881,668c-4.78-3.64-6.43-7.75-6.25-10.94,0-3.88,4.41-10,12.69-16.42Zm21.88,59.52c0-4.79-1.65-10-8.83-15.51a173.86,173.86,0,0,0-20-13c-14.53,10-20.78,18.47-20.78,26.45,0,11.86,12.32,20.3,26.11,20.3C905.86,718.82,914.87,709.92,914.87,700.58Zm-44.5-85.52c0-17.79,8.09-33.52,18.2-41,6.81-5.24,15.08-8.21,20.23-8.21,5.89,0,11.4,1.83,15.63,6.16,10.49,0,17.11-2.51,20.6-5.25l1.29,5.25c-5.34,8-11.4,10.26-17.11,11.17a56.84,56.84,0,0,1,1.11,10.49c0,16.42-6.44,29-12.87,35.35-7.73,8-18,13.45-27.77,13.23C877,642,870.37,629.43,870.37,615.06Zm46.16-18.7c0-14.14-4.6-22.12-12.69-22.12-10.85,0-19.5,17.56-19.5,37.85,0,13.69,5.34,21,12.14,21C907.7,633.08,916.53,616.88,916.53,596.36Z"/><path class="cls-3" d="M136.83,376.07c-9,16.65-16.92,21.66-21.7,21.66-4.41,0-8.09-4.1-14.34-21.43-4.23-11.63-8.46-23.49-11.77-34C81.48,353,77.43,359,76.14,366.26c-2,10.49-2.94,17.56-4.59,26.91a82.67,82.67,0,0,0-13.24,4.56L57,396.36C64.74,352.58,76.14,286.68,80.92,255c1.11-8,.92-9.58-12.5-10.49l1.1-5.7c14.9-2.51,25.2-7.76,27.59-7.76,1.84,0,2,2.28,1.1,6.85C92.69,268,85.34,310.39,79.09,345.51c10.29-13.91,37-53.36,50.2-53.36,5.33,0,8.46,3.19,8.46,7.52,0,3.65-2.39,10.27-5.52,13.69-2,2.05-2.94,2.28-4.59.91-1.84-1.6-5.15-5-8.83-5-4,0-14.53,12.77-20.6,21.21,3.13,10.26,9.38,26.45,14.16,37.86,4,10,6.62,14.13,9.38,14.13,2.21,0,6.25-3,11.95-11.63Z"/><path class="cls-3" d="M230.43,374.47c-9.74,16-21,23.26-26.3,23.26-5,0-7.54-5.47-4-24.17,3.31-16.19,6.44-32.38,9.19-46.75C212.23,312,211.49,307,206.89,307c-6.07,0-20.23,12.77-32.73,36.49-3.31,6.16-4.78,12.09-6.25,19.15-1.84,8.9-4.23,21.21-5.7,30.56a80.62,80.62,0,0,0-13.06,4.56l-1.29-1.59c5.15-24.86,10.48-52.68,15.08-78,1.29-7.07.55-9.13-.92-9.13-2,0-6.62,5-11.22,10.49l-2.57-5.92c8.46-13.23,18-21.44,24.09-21.44,5.33,0,6.8,8,2.94,27.82l-2.57,13.46c16.36-26.46,32.92-41.28,43.95-41.28,6.07,0,11.77,5.24,5.88,35.8-2.39,12.54-5.88,30.1-8.64,44.47-1.1,6.16-1.1,8.89.18,8.89,1.66,0,7-3.64,13.61-12.31Z"/><path class="cls-3" d="M317.6,327.72c0,23.72-9.56,48.12-25.75,60.89-6.62,5-14.34,9.12-22.62,9.12-17.47,0-24.64-17.33-24.64-35.57,0-31.47,13.61-54.05,29.61-63.85,5.88-3.65,13.42-6.16,18.94-6.16C308.59,292.15,317.6,304.69,317.6,327.72Zm-57.38,31.93c0,17.1,5.15,28.51,15.26,28.51,17.48,0,26.67-34.9,26.67-59.52,0-18.93-6.62-26.91-15.45-26.91C268.31,301.73,260.22,336.16,260.22,359.65Z"/><path class="cls-3" d="M330.28,314.5c6.81-11.63,16.74-22.35,22.62-22.35,5.7,0,7.36,7.75,7.73,27.14.36,16.64.36,37.4.18,49.94,11.59-22.58,25-48.35,35.86-73.2h4.78c1.29,24.4,3.31,53.13,5.33,78.67,8.83-13.45,26.67-43.33,26.85-57.47,0-4.78-1.84-8.43-2.75-10.94-.74-1.83-1.11-3.19-.56-5,1.47-4.79,7.18-9.12,10.49-9.12,4.59,0,7,5.24,7,13,0,6.16-1.47,12.54-4.78,20.07-8.27,19.15-27.22,48.57-42.48,72.51H395.2c-1.29-19.84-3.13-48.11-5-70.92-12,24.86-26.48,51.08-36.41,70.92h-5.15c0-18.24,0-51.08-1.29-75.25-.55-9.35-1.28-13.68-2.94-13.68-1.47,0-5,3-11,11.17Z"/><path class="cls-3" d="M489.72,374.24c-9.2,15.28-21.33,23.49-26.67,23.49-4.59,0-7.35-4.56-3.67-26.45,6.62-39,13.79-80.27,19.67-115.39,1.47-9.12.92-10-5.7-10.72-2-.23-5.33-.68-6.8-.68l1.1-5.93c7.91-1.14,17.29-3.42,22.44-5.7,3.31-1.6,4.41-1.83,5.51-1.83,1.66,0,1.66,2.06.74,7.3-8.28,43.79-17.29,95.78-23.36,133.86-1.1,6.39-.92,8.44.56,8.44,1.65,0,6.8-3.19,13.42-12.09Z"/><path class="cls-3" d="M524.84,397.73c-8.82,0-20.78-6.38-20.78-34,0-21.2,7.36-46.52,21.89-59.74,8.27-7.3,16.91-11.86,24.82-11.86,10.48,0,16.37,8.21,16.37,18.24,0,22.81-27,33.53-47.63,38.09-.18,2.73-.37,7.29-.37,9.57,0,13.23,2.94,26,14.35,26,8.27,0,18.2-6.38,27.21-18l2.76,5.7C548.57,393.17,534,397.73,524.84,397.73ZM520.25,341c26.66-5.93,32.91-16.42,33.1-26.91,0-7.75-3.68-12.08-9.57-12.08C538.27,302,525.58,307,520.25,341Z"/><path class="cls-3" d="M660.56,375.16c-9,14.59-20.6,22.8-25.75,22.8-5.33,0-7.72-5.47-4-27.14L633,358.05C622.31,377.44,605,398,592,398c-7.17,0-14-8-14-29.42,0-20.29,7.54-45.38,21.51-60,7.91-8.67,22.25-16.19,30.71-16.19,4.23,0,9.75.68,13.43,3l6.43-39.22c1.48-9.12.19-10-6.62-10.72-1.83-.23-5.7-.46-7-.46l1.1-6.15a102.76,102.76,0,0,0,23.35-5.93c2.76-.91,4.23-1.6,5.34-1.6,1.47,0,1.84,2.05.92,6.84-8.46,44.93-17.11,92.36-23.36,134.55-.92,6.16-.18,8.66,1.1,8.66,2.21,0,6.81-3.42,13.43-12.08Zm-31.63-21.9c3.67-6.38,6.62-13.22,8.64-24.17l3.68-19.61c-2.58-3.65-8.83-7.07-17.66-7.07-21.15,0-30.16,37.63-30.16,61.12,0,12.77,2.76,19.38,7.73,19.38C608.7,382.91,619.55,370.14,628.93,353.26Z"/><path class="cls-3" d="M697.33,367.4c-2.94,3.42-4.78,5.7-4.78,8.44,0,3.65,3.68,7.75,14.71,14.37C727.49,401.84,733,409.36,733,419.4c0,19.15-25.93,35.57-44.5,35.57s-34.39-11.86-34.39-26.45c.18-9.58,10.85-19.61,31.26-34.21-4.78-3.65-6.44-7.75-6.25-10.94,0-3.88,4.41-10,12.69-16.42Zm21.89,59.52c0-4.79-1.66-10-8.83-15.5a172.51,172.51,0,0,0-20-13c-14.53,10-20.79,18.47-20.79,26.45,0,11.86,12.33,20.3,26.12,20.3C710.21,445.17,719.22,436.27,719.22,426.92Zm-44.51-85.51c0-17.79,8.1-33.53,18.21-41.05,6.8-5.25,15.08-8.21,20.23-8.21,5.88,0,11.4,1.82,15.63,6.16,10.48,0,17.1-2.51,20.6-5.25l1.28,5.25c-5.33,8-11.4,10.26-17.1,11.17A57.62,57.62,0,0,1,734.67,320c0,16.42-6.44,29-12.88,35.35-7.72,8-18,13.45-27.77,13.22C681.33,368.32,674.71,355.77,674.71,341.41Zm46.16-18.7c0-14.14-4.59-22.12-12.69-22.12-10.85,0-19.49,17.56-19.49,37.85,0,13.68,5.33,21,12.14,21C712.05,359.42,720.87,343.23,720.87,322.71Z"/><path class="cls-3" d="M773.46,397.73c-8.82,0-20.78-6.38-20.78-34,0-21.2,7.36-46.52,21.89-59.74,8.27-7.3,16.92-11.86,24.82-11.86,10.49,0,16.37,8.21,16.37,18.24,0,22.81-27,33.53-47.63,38.09-.18,2.73-.37,7.29-.37,9.57,0,13.23,3,26,14.35,26,8.27,0,18.2-6.38,27.22-18l2.75,5.7C797.19,393.17,782.66,397.73,773.46,397.73ZM768.87,341C795.53,335,801.79,324.53,802,314c0-7.75-3.68-12.08-9.56-12.08C786.89,302,774.2,307,768.87,341Z"/><path class="cls-3" d="M451.27,578.12c0,3.87-2.57,9.12-5.7,10.94-1.65.91-2.76.46-4.23-1.59-5-7.07-9.56-10.27-13.79-10.27-4.78,0-9.93,4.79-9.93,13,0,7.53,5.52,13,12.14,19.39,11,10.71,15.81,16.64,15.81,26.68,0,18.7-19.12,35.12-34,35.12-8.83,0-17.29-7.53-17.29-15.51,0-5,4.42-11.17,7.54-11.63,1.29-.23,2,.68,3.13,2.28,4.6,8.21,10.11,13.23,16.18,13.23,7.54,0,12.14-6.85,12.14-14.14,0-5.48-2-11-10.67-19.84-8.64-8.44-16.18-14.82-16-26.68,0-6.85,2.21-14.37,9.57-22.12,5.88-6.62,14.34-11.18,20.59-11.18C444.84,565.8,451.27,571.73,451.27,578.12Z"/><path class="cls-3" d="M472.05,512.21a92,92,0,0,0,22.62-5.7c2.76-1.37,4.05-1.82,5.15-1.82,1.47,0,1.84,2.28.92,7.52-5.15,29.19-11.77,65.45-16.92,94.64,14.71-25.31,33.29-41.05,44.69-41.05,6.25,0,12.14,3.65,6.44,32.61-2.58,14.14-6.07,33.3-9,47.66-1.28,6.16-1.1,8.67.37,8.67,1.66,0,6.07-2.74,12.69-11.4l2.76,5.47c-9,15.28-21,22.58-26.3,22.58-5.15,0-6.8-7.07-3.68-23.26,3.31-15.74,7.18-36,10.12-51.31,2.57-13,1.1-16.42-2.58-16.42-6.8,0-20.59,10.94-32.91,36a64.33,64.33,0,0,0-6.62,19.15c-1.66,9.13-4,22.58-5.52,31.47A90.66,90.66,0,0,0,461,671.39l-1.29-1.6c7.91-44,17.47-99.66,23.91-140.47,1.47-9.35.37-9.58-5.15-10.27-2-.22-6.07-.68-7.54-.68Z"/><path class="cls-3" d="M635.17,648.13c-9,15-20.41,23.26-25.56,23.26s-7.36-5.25-4.05-26l2.57-15.74a121.62,121.62,0,0,1-22.06,30.79c-5.89,5.93-12.88,10.95-18.94,10.95-6.44,0-11.77-9.81-11.77-28.28,0-21.44,7.9-45.15,20.41-59.29,9.56-11,22.8-18,35.12-18,9.38,0,17.84,3.42,21.34,3.88-3.31,14.37-9.75,49.48-13.24,75.25-.92,6.39-.56,8.9.91,8.9,2.21,0,6.07-3,12.69-11.41ZM601.88,629.2a89.73,89.73,0,0,0,10.67-27.37c1.84-8.66,3.49-16.87,4-22.35a31.09,31.09,0,0,0-14-3.64c-21.7,0-31.82,34.66-31.82,64.3,0,9.13,2,15.06,5.7,15.06C582.21,655.2,590.3,648.13,601.88,629.2Z"/><path class="cls-3" d="M649,587.47c9.19-13.46,18.94-21.67,24.27-21.67,6.26,0,5.7,12.09,2.21,31.7l-1.1,6.16c9.93-21,22.62-37.86,30-37.86,4.42,0,8.46,4.56,8.46,10.26,0,5-3.86,11.86-7.17,14.6-1.66,1.37-3.13,1.37-4.05,0-2-2.74-3.86-6.61-6.06-6.61-4.23,0-13.24,16.19-17.48,25.54-6.43,14.36-9.74,35.34-13.42,57.24a86.48,86.48,0,0,0-13.42,4.56l-1.29-1.6c4.41-21,10.85-55.64,13.42-72.29,2-12.77,1.47-14.82.19-14.82-1.84,0-6.44,3.65-12,10.49Z"/><path class="cls-3" d="M756,648.81c-9.2,15.28-20.78,22.58-26.3,22.58-4.78,0-6.81-5.93-3.31-24.18,2.94-15.05,8.09-39.45,11.58-57.92.74-4.33.56-6.38-.55-6.38-1.84,0-7.35,4.56-12.13,10.26l-2.4-5.93c8.65-11.63,21.15-21.44,27-21.44,4.6,0,4.78,7.76,1.47,24.63-3.5,16.42-7.91,39.45-11.22,55.64-1.29,6.16-1.29,8.67,0,8.67,1.84,0,6.81-3.19,13.24-11.63Zm5.15-119.49c0,7.06-4,13.22-9.75,13.22-4.6,0-8.09-4.1-8.09-10.26,0-5.93,3.68-13.45,10.3-13.45C758.56,518.83,761.14,523.61,761.14,529.32Z"/><path class="cls-3" d="M855.1,648.13c-9.74,16-21,23.26-26.29,23.26-5,0-7.54-5.48-4-24.18,3.31-16.19,6.44-32.38,9.2-46.75,2.94-14.82,2.2-19.83-2.39-19.83-6.07,0-20.23,12.77-32.74,36.48-3.31,6.16-4.78,12.09-6.25,19.16-1.84,8.89-4.23,21.21-5.7,30.56a79.08,79.08,0,0,0-13.06,4.56l-1.29-1.6c5.15-24.86,10.49-52.68,15.08-78,1.29-7.07.56-9.12-.92-9.12-2,0-6.62,5-11.21,10.49l-2.58-5.93c8.46-13.23,18-21.44,24.09-21.44,5.34,0,6.81,8,2.94,27.82l-2.57,13.46c16.37-26.45,32.92-41.28,43.95-41.28,6.07,0,11.77,5.25,5.89,35.8-2.39,12.55-5.89,30.11-8.65,44.47-1.1,6.16-1.1,8.9.19,8.9,1.65,0,7-3.65,13.61-12.32Z"/><path class="cls-3" d="M893,641.06c-3,3.42-4.78,5.7-4.78,8.43,0,3.65,3.67,7.76,14.71,14.37,20.23,11.63,25.74,19.16,25.74,29.19,0,19.16-25.93,35.58-44.5,35.58s-34.39-11.86-34.39-26.46C850,692.59,860.62,682.56,881,668c-4.78-3.64-6.43-7.75-6.25-10.94,0-3.88,4.41-10,12.69-16.42Zm21.88,59.52c0-4.79-1.65-10-8.83-15.51a173.86,173.86,0,0,0-20-13c-14.53,10-20.78,18.47-20.78,26.45,0,11.86,12.32,20.3,26.11,20.3C905.86,718.82,914.87,709.92,914.87,700.58Zm-44.5-85.52c0-17.79,8.09-33.52,18.2-41,6.81-5.24,15.08-8.21,20.23-8.21,5.89,0,11.4,1.83,15.63,6.16,10.49,0,17.11-2.51,20.6-5.25l1.29,5.25c-5.34,8-11.4,10.26-17.11,11.17a56.84,56.84,0,0,1,1.11,10.49c0,16.42-6.44,29-12.87,35.35-7.73,8-18,13.45-27.77,13.23C877,642,870.37,629.43,870.37,615.06Zm46.16-18.7c0-14.14-4.6-22.12-12.69-22.12-10.85,0-19.5,17.56-19.5,37.85,0,13.69,5.34,21,12.14,21C907.7,633.08,916.53,616.88,916.53,596.36Z"/><rect class="cls-4" x="38.18" y="398.27" width="844.32" height="3.27"/><rect class="cls-5" x="379.09" y="672.27" width="565.91" height="3.27"/></svg>