<svg id="圖層_1" data-name="圖層 1" xmlns="http://www.w3.org/2000/svg" viewBox="0 0 1920 559"><defs>
<style>.cls-1{fill:#fff; stroke:#191919}</style>
</defs>
<title>mainbg</title>
<rect class="cls-1" x="0.5" y="0.5" width="38" height="371"/><path d="M38,1V371H1V1H38m1-1H0V372H39V0Z"/><rect class="cls-1" x="39.5" y="0.5" width="55" height="173"/><path d="M94,1V173H40V1H94m1-1H39V174H95V0Z"/><rect class="cls-1" x="95.5" y="0.5" width="49" height="210"/><path d="M144,1V210H96V1h48m1-1H95V211h50V0Z"/><rect class="cls-1" x="145.5" y="0.5" width="35" height="235"/><path d="M180,1V235H146V1h34m1-1H145V236h36V0Z"/><rect class="cls-1" x="181.5" y="0.5" width="62" height="198"/><path d="M243,1V198H182V1h61m1-1H181V199h63V0Z"/><rect class="cls-1" x="244.5" y="0.5" width="43" height="165"/><path d="M287,1V165H245V1h42m1-1H244V166h44V0Z"/><rect class="cls-1" x="288.5" y="0.5" width="31" height="82"/><path d="M319,1V82H289V1h30m1-1H288V83h32V0Z"/><rect class="cls-1" x="320.5" y="0.5" width="63" height="250"/><path d="M383,1V250H321V1h62m1-1H320V251h64V0Z"/><rect class="cls-1" x="384.5" y="0.5" width="47" height="165"/><path d="M431,1V165H385V1h46m1-1H384V166h48V0Z"/><rect class="cls-1" x="433.5" y="0.5" width="59" height="67"/><path d="M492,1V67H434V1h58m1-1H433V68h60V0Z"/><rect class="cls-1" x="493.5" y="0.5" width="50" height="50"/><path d="M543,1V50H494V1h49m1-1H493V51h51V0Z"/><rect class="cls-1" x="544.5" y="0.5" width="67" height="33"/><path d="M611,1V33H545V1h66m1-1H544V34h68V0Z"/><rect class="cls-1" x="612.5" y="0.5" width="36" height="67"/><path d="M648,1V67H613V1h35m1-1H612V68h37V0Z"/><rect class="cls-1" x="649.5" y="0.5" width="70" height="41"/><path d="M719,1V41H650V1h69m1-1H649V42h71V0Z"/><rect class="cls-1" x="720.5" y="0.5" width="51" height="67"/><path d="M771,1V67H721V1h50m1-1H720V68h52V0Z"/><rect class="cls-1" x="772.5" y="0.5" width="23" height="50"/><path d="M795,1V50H773V1h22m1-1H772V51h24V0Z"/><rect class="cls-1" x="796.5" y="0.5" width="84" height="20"/><path d="M880,1V20H797V1h83m1-1H796V21h85V0Z"/><rect class="cls-1" x="881.5" y="0.5" width="30" height="82"/><path d="M911,1V82H882V1h29m1-1H881V83h31V0Z"/><rect class="cls-1" x="912.5" y="0.5" width="47" height="57"/><path d="M959,1V57H913V1h46m1-1H912V58h48V0Z"/><rect class="cls-1" x="960.5" y="0.5" width="27" height="41"/><path d="M987,1V41H961V1h26m1-1H960V42h28V0Z"/><rect class="cls-1" x="988.5" y="0.5" width="41" height="73"/><path d="M1029,1V73H989V1h40m1-1H988V74h42V0Z"/><rect class="cls-1" x="1030.5" y="0.5" width="40" height="99"/><path d="M1070,1V99h-39V1h39m1-1h-41V100h41V0Z"/><rect class="cls-1" x="1071.5" y="0.5" width="41" height="82"/><path d="M1112,1V82h-40V1h40m1-1h-42V83h42V0Z"/><rect class="cls-1" x="1113.5" y="0.5" width="49" height="104"/><path d="M1162,1V104h-48V1h48m1-1h-50V105h50V0Z"/><rect class="cls-1" x="1163.5" y="0.5" width="38" height="146"/><path d="M1201,1V146h-37V1h37m1-1h-39V147h39V0Z"/><rect class="cls-1" x="1202.5" y="0.5" width="39" height="117"/><path d="M1241,1V117h-38V1h38m1-1h-40V118h40V0Z"/><rect class="cls-1" x="1242.5" y="0.5" width="56" height="146"/><path d="M1298,1V146h-55V1h55m1-1h-57V147h57V0Z"/><rect class="cls-1" x="1299.5" y="0.5" width="39" height="104"/><path d="M1338,1V104h-38V1h38m1-1h-40V105h40V0Z"/><rect class="cls-1" x="1339.5" y="0.5" width="62" height="194"/><path d="M1401,1V194h-61V1h61m1-1h-63V195h63V0Z"/><rect class="cls-1" x="1402.5" y="0.5" width="73" height="146"/><path d="M1475,1V146h-72V1h72m1-1h-74V147h74V0Z"/><rect class="cls-1" x="1476.5" y="0.5" width="74" height="263"/><path d="M1550,1V263h-73V1h73m1-1h-75V264h75V0Z"/><rect class="cls-1" x="1551.5" y="0.5" width="63" height="315"/><path d="M1614,1V315h-62V1h62m1-1h-64V316h64V0Z"/><rect class="cls-1" x="1615.5" y="0.5" width="47" height="238"/><path d="M1662,1V238h-46V1h46m1-1h-48V239h48V0Z"/><rect class="cls-1" x="1663.5" y="0.5" width="64" height="205"/><path d="M1727,1V205h-63V1h63m1-1h-65V206h65V0Z"/><rect class="cls-1" x="1728.5" y="0.5" width="53" height="475"/><path d="M1781,1V475h-52V1h52m1-1h-54V476h54V0Z"/><rect class="cls-1" x="1782.5" y="0.5" width="57" height="340"/><path d="M1839,1V340h-56V1h56m1-1h-58V341h58V0Z"/><rect class="cls-1" x="1840.5" y="0.5" width="79" height="504"/><path d="M1919,1V504h-78V1h78m1-1h-80V505h80V0Z"/><rect class="cls-1" x="0.5" y="372.5" width="38" height="186"/><path d="M38,373V558H1V373H38m1-1H0V559H39V372Z"/><rect class="cls-1" x="39.5" y="174.5" width="55" height="249"/><path d="M94,175V423H40V175H94m1-1H39V424H95V174Z"/><rect class="cls-1" x="145.5" y="236.5" width="35" height="91"/><path d="M180,237v90H146V237h34m1-1H145v92h36V236Z"/><rect class="cls-1" x="181.5" y="199.5" width="62" height="99"/><path d="M243,200v98H182V200h61m1-1H181V299h63V199Z"/><rect class="cls-1" x="320.5" y="251.5" width="63" height="128"/><path d="M383,252V379H321V252h62m1-1H320V380h64V251Z"/><rect class="cls-1" x="384.5" y="166.5" width="47" height="126"/><path d="M431,167V292H385V167h46m1-1H384V293h48V166Z"/><rect class="cls-1" x="432.5" y="68.5" width="60" height="78"/><path d="M492,69v77H433V69h59m1-1H432v79h61V68Z"/><rect class="cls-1" x="493.5" y="51.5" width="50" height="73"/><path d="M543,52v72H494V52h49m1-1H493v74h51V51Z"/><rect class="cls-1" x="1663.5" y="206.5" width="31" height="16"/><path d="M1694,207v15h-30V207h30m1-1h-32v17h32V206Z"/><rect class="cls-1" x="1811.5" y="341.5" width="28" height="28"/><path d="M1839,342v27h-27V342h27m1-1h-29v29h29V341Z"/><rect class="cls-1" x="1299.5" y="105.5" width="39" height="64"/><path d="M1338,106v63h-38V106h38m1-1h-40v65h40V105Z"/><rect class="cls-1" x="1502.5" y="206.5" width="48" height="57"/><path d="M1550,207v56h-47V207h47m1-1h-49v58h49V206Z"/><rect class="cls-1" x="1551.5" y="280.5" width="31" height="31"/><path d="M1582,281v30h-30V281h30m1-1h-32v32h32V280Z"/></svg>