<svg id="圖層_1" data-name="圖層 1" xmlns="http://www.w3.org/2000/svg" viewBox="0 0 1000 1000"><defs><style>.cls-1{fill:#252424;opacity:0.74;}.cls-2{fill:#fff;}</style></defs><title>MV</title><rect class="cls-1" width="1000" height="1000"/><path class="cls-2" d="M299.42,464.25c0-24.66.14-48.24.58-60.84h-.44c-4.06,16.92-24.67,79-37.59,118.79h-7.7c-9.72-30.78-31.06-99.89-35.7-119h-.29c.72,14.4,1,43.74,1,65.34V522.2h-7.84v-126h11.76c13.94,43.2,31.5,99.71,35.27,113.93h.29c2.33-9.18,22.65-72,36.87-113.93h11.62v126h-7.84Z"/><path class="cls-2" d="M458.79,458.31c0,34.38-14.8,65.69-46.16,65.69-28.59,0-45.28-28.62-45.28-64.79,0-35.64,16.11-64.8,46.3-64.8C441.52,394.41,458.79,421.59,458.79,458.31Zm-83,.36c0,29,12.92,56.33,37.31,56.33,26.27,0,37.31-26.64,37.31-56.51,0-29.34-12.49-55.08-37-55.08C387.23,403.41,375.76,430.23,375.76,458.67Z"/><path class="cls-2" d="M544.43,522.2l-37.74-126h8.42l19.74,65.88c5.66,19.08,12,40.13,14.23,50.75h.29c2.17-9.36,9.14-31.49,14.8-50l20.47-66.6h8.27l-39.19,126Z"/><path class="cls-2" d="M654.74,396.21v126h-7.83v-126Z"/><path class="cls-2" d="M780.59,460.29H728.77V513.2h56.76l-1.16,9H720.93v-126h62.28v9H728.77v46.08h51.82Z"/><path class="cls-2" d="M221.42,347.27l-.87-.58-1.75,2.64a1.77,1.77,0,0,1-2.37.71l-4.37-2.9a1.76,1.76,0,0,1-.26-2.45l1.75-2.64-35-23.21-1.75,2.64a1.76,1.76,0,0,1-2.36.71l-4.38-2.9a1.76,1.76,0,0,1-.26-2.45l1.75-2.64-.87-.58c-1.46-1-3.56-.33-4.73,1.43L136.55,359.4c-1.17,1.75-.93,3.94.52,4.9l.88.59,1.75-2.64a1.75,1.75,0,0,1,2.36-.72l4.37,2.9a1.77,1.77,0,0,1,.26,2.46l-1.75,2.64,35,23.2,1.76-2.64a1.76,1.76,0,0,1,2.36-.71l4.37,2.9a1.76,1.76,0,0,1,.26,2.45l-1.75,2.64.88.58c1.45,1,3.56.33,4.72-1.42L222,352.18C223.11,350.42,222.88,348.23,221.42,347.27ZM151.6,359.49a1.77,1.77,0,0,1-2.37.72l-4.37-2.9a1.77,1.77,0,0,1-.26-2.46l3.5-5.28a1.76,1.76,0,0,1,2.36-.71l4.38,2.9a1.76,1.76,0,0,1,.26,2.45Zm8.4-12.67a1.77,1.77,0,0,1-2.36.72l-4.38-2.9a1.78,1.78,0,0,1-.26-2.46l3.5-5.28a1.77,1.77,0,0,1,2.37-.71l4.37,2.9a1.76,1.76,0,0,1,.26,2.45Zm8.4-12.67a1.76,1.76,0,0,1-2.36.71l-4.37-2.9a1.76,1.76,0,0,1-.26-2.45l3.5-5.28a1.76,1.76,0,0,1,2.36-.71l4.37,2.9a1.76,1.76,0,0,1,.27,2.45Zm11.54,47.18a1.78,1.78,0,0,1-2.36.72l-21.87-14.51a1.76,1.76,0,0,1-.27-2.45l8.41-12.67a1.76,1.76,0,0,1,2.36-.72l21.87,14.51a1.76,1.76,0,0,1,.26,2.45Zm14.71-22.17a1.77,1.77,0,0,1-2.37.71l-21.87-14.5a1.77,1.77,0,0,1-.26-2.46l8.41-12.67a1.76,1.76,0,0,1,2.36-.71L202.79,344a1.76,1.76,0,0,1,.26,2.45Zm-1.06,28.18a1.79,1.79,0,0,1-2.37.72l-4.37-2.91a1.76,1.76,0,0,1-.26-2.45l3.5-5.28a1.76,1.76,0,0,1,2.36-.71l4.38,2.9a1.76,1.76,0,0,1,.26,2.45Zm8.4-12.67a1.76,1.76,0,0,1-2.36.71l-4.38-2.9A1.76,1.76,0,0,1,195,370l3.5-5.28a1.77,1.77,0,0,1,2.37-.71l4.37,2.9a1.76,1.76,0,0,1,.26,2.45Zm8.4-12.67a1.76,1.76,0,0,1-2.36.71l-4.37-2.9a1.76,1.76,0,0,1-.26-2.45l3.5-5.28a1.77,1.77,0,0,1,2.36-.72l4.37,2.9a1.77,1.77,0,0,1,.27,2.46Z"/><path class="cls-2" d="M188.45,397l-.88-.58-1.75,2.64a1.76,1.76,0,0,1-2.36.71l-4.37-2.9a1.75,1.75,0,0,1-.26-2.45l1.75-2.64-35-23.21-1.76,2.64a1.76,1.76,0,0,1-2.36.72l-4.37-2.9a1.77,1.77,0,0,1-.26-2.46l1.75-2.64-.88-.58c-1.45-1-3.56-.33-4.72,1.43l-29.42,44.35c-1.16,1.76-.93,3.94.53,4.91l.87.58,1.75-2.64a1.78,1.78,0,0,1,2.36-.72l4.38,2.91a1.76,1.76,0,0,1,.26,2.45L112,419.29l35,23.21,1.75-2.64a1.76,1.76,0,0,1,2.36-.72l4.38,2.9a1.77,1.77,0,0,1,.26,2.46L154,447.14l.87.58c1.46,1,3.56.32,4.73-1.43L189,401.94C190.14,400.18,189.9,398,188.45,397Zm-69.83,12.23a1.76,1.76,0,0,1-2.36.71l-4.37-2.9a1.76,1.76,0,0,1-.27-2.45l3.51-5.28a1.76,1.76,0,0,1,2.36-.72l4.37,2.9a1.77,1.77,0,0,1,.26,2.46ZM127,396.59a1.77,1.77,0,0,1-2.37.71l-4.37-2.9a1.77,1.77,0,0,1-.26-2.46l3.5-5.28a1.76,1.76,0,0,1,2.36-.71l4.38,2.9a1.77,1.77,0,0,1,.26,2.46Zm8.4-12.68a1.76,1.76,0,0,1-2.36.72l-4.38-2.9a1.77,1.77,0,0,1-.26-2.46l3.5-5.28a1.77,1.77,0,0,1,2.37-.71l4.37,2.9a1.76,1.76,0,0,1,.26,2.45ZM147,431.09a1.75,1.75,0,0,1-2.36.72L122.73,417.3a1.76,1.76,0,0,1-.26-2.45l8.4-12.67a1.77,1.77,0,0,1,2.37-.71L155.11,416a1.76,1.76,0,0,1,.26,2.45Zm14.71-22.17a1.76,1.76,0,0,1-2.36.71l-21.87-14.5a1.76,1.76,0,0,1-.26-2.45l8.4-12.68a1.76,1.76,0,0,1,2.36-.71l21.87,14.5a1.77,1.77,0,0,1,.26,2.46Zm-1.06,28.18a1.76,1.76,0,0,1-2.36.72l-4.38-2.9a1.78,1.78,0,0,1-.26-2.46l3.5-5.28a1.77,1.77,0,0,1,2.37-.71l4.37,2.9a1.77,1.77,0,0,1,.26,2.46ZM169,424.43a1.78,1.78,0,0,1-2.37.72l-4.37-2.9a1.77,1.77,0,0,1-.26-2.46l3.5-5.28a1.76,1.76,0,0,1,2.36-.71l4.38,2.9a1.77,1.77,0,0,1,.26,2.45Zm8.4-12.67a1.78,1.78,0,0,1-2.36.72l-4.38-2.91a1.76,1.76,0,0,1-.26-2.45l3.5-5.28a1.77,1.77,0,0,1,2.37-.71l4.37,2.9a1.76,1.76,0,0,1,.26,2.45Z"/><path class="cls-2" d="M873.24,523.39l-.87-.58-1.75,2.64a1.76,1.76,0,0,1-2.36.71l-4.38-2.9a1.76,1.76,0,0,1-.26-2.45l1.75-2.64-35-23.21-1.75,2.64a1.77,1.77,0,0,1-2.36.72l-4.38-2.9a1.77,1.77,0,0,1-.26-2.46l1.75-2.64-.87-.58c-1.46-1-3.56-.33-4.73,1.43l-29.41,44.35c-1.17,1.76-.93,3.94.52,4.91l.88.58,1.75-2.64a1.76,1.76,0,0,1,2.36-.71l4.37,2.9a1.76,1.76,0,0,1,.27,2.45l-1.75,2.64,35,23.21,1.75-2.64a1.75,1.75,0,0,1,2.36-.72l4.37,2.9a1.77,1.77,0,0,1,.26,2.46l-1.75,2.64.88.58c1.45,1,3.56.33,4.72-1.43l29.42-44.35C874.93,526.54,874.7,524.36,873.24,523.39Zm-69.82,12.23a1.76,1.76,0,0,1-2.36.71l-4.38-2.9a1.76,1.76,0,0,1-.26-2.45l3.5-5.28a1.77,1.77,0,0,1,2.36-.72l4.38,2.9a1.77,1.77,0,0,1,.26,2.46Zm8.4-12.67a1.76,1.76,0,0,1-2.36.71l-4.37-2.9a1.76,1.76,0,0,1-.27-2.45l3.51-5.28a1.75,1.75,0,0,1,2.36-.72l4.37,2.9a1.77,1.77,0,0,1,.26,2.46Zm8.41-12.68a1.77,1.77,0,0,1-2.37.72l-4.37-2.9a1.77,1.77,0,0,1-.26-2.46l3.5-5.28a1.76,1.76,0,0,1,2.36-.71l4.38,2.9a1.77,1.77,0,0,1,.26,2.46Zm11.53,47.19a1.76,1.76,0,0,1-2.36.71l-21.87-14.5a1.77,1.77,0,0,1-.26-2.46l8.4-12.67a1.76,1.76,0,0,1,2.36-.71l21.87,14.5a1.76,1.76,0,0,1,.26,2.45Zm14.71-22.18a1.77,1.77,0,0,1-2.37.71l-21.87-14.5A1.77,1.77,0,0,1,822,519l8.41-12.68a1.76,1.76,0,0,1,2.36-.71l21.87,14.5a1.77,1.77,0,0,1,.26,2.46Zm-1.06,28.19a1.77,1.77,0,0,1-2.37.71l-4.37-2.9a1.77,1.77,0,0,1-.26-2.46l3.5-5.28a1.76,1.76,0,0,1,2.36-.71l4.38,2.9a1.77,1.77,0,0,1,.26,2.46Zm8.4-12.68a1.77,1.77,0,0,1-2.36.72l-4.38-2.9a1.77,1.77,0,0,1-.26-2.46l3.5-5.28a1.77,1.77,0,0,1,2.37-.71l4.37,2.9a1.76,1.76,0,0,1,.26,2.45Zm8.4-12.67a1.77,1.77,0,0,1-2.36.72l-4.37-2.9a1.77,1.77,0,0,1-.26-2.46l3.5-5.28a1.76,1.76,0,0,1,2.36-.71l4.37,2.9a1.76,1.76,0,0,1,.27,2.45Z"/><path class="cls-2" d="M840.27,573.15l-.87-.58-1.76,2.64a1.76,1.76,0,0,1-2.36.72l-4.37-2.9a1.77,1.77,0,0,1-.26-2.46l1.75-2.64-35-23.2-1.75,2.64a1.77,1.77,0,0,1-2.37.71l-4.37-2.9a1.76,1.76,0,0,1-.26-2.45l1.75-2.64-.88-.58c-1.45-1-3.56-.33-4.72,1.42l-29.42,44.35c-1.16,1.76-.93,4,.53,4.91l.87.58,1.75-2.64a1.77,1.77,0,0,1,2.37-.71l4.37,2.9a1.76,1.76,0,0,1,.26,2.45l-1.75,2.64,35,23.21,1.75-2.64a1.76,1.76,0,0,1,2.36-.71l4.38,2.9a1.76,1.76,0,0,1,.26,2.45l-1.75,2.64.87.58c1.46,1,3.57.33,4.73-1.43l29.41-44.35C842,576.31,841.72,574.12,840.27,573.15Zm-69.83,12.23a1.77,1.77,0,0,1-2.36.72l-4.37-2.91a1.76,1.76,0,0,1-.26-2.45l3.5-5.28a1.76,1.76,0,0,1,2.36-.71l4.37,2.9a1.76,1.76,0,0,1,.27,2.45Zm8.41-12.67a1.76,1.76,0,0,1-2.36.71l-4.38-2.9a1.76,1.76,0,0,1-.26-2.45l3.5-5.28a1.78,1.78,0,0,1,2.36-.72l4.38,2.91a1.76,1.76,0,0,1,.26,2.45Zm8.4-12.67a1.76,1.76,0,0,1-2.36.71l-4.37-2.9a1.76,1.76,0,0,1-.27-2.45l3.51-5.28a1.76,1.76,0,0,1,2.36-.72l4.37,2.9a1.77,1.77,0,0,1,.26,2.46Zm11.54,47.18a1.77,1.77,0,0,1-2.37.71l-21.87-14.5a1.77,1.77,0,0,1-.26-2.46l8.41-12.67a1.76,1.76,0,0,1,2.36-.71l21.87,14.5a1.77,1.77,0,0,1,.26,2.46ZM813.49,585a1.77,1.77,0,0,1-2.36.72l-21.87-14.51a1.76,1.76,0,0,1-.26-2.45l8.4-12.67a1.78,1.78,0,0,1,2.37-.72l21.86,14.51a1.76,1.76,0,0,1,.27,2.45Zm-1.06,28.19a1.76,1.76,0,0,1-2.36.71L805.7,611a1.76,1.76,0,0,1-.27-2.45l3.51-5.28a1.77,1.77,0,0,1,2.36-.72l4.37,2.9a1.77,1.77,0,0,1,.26,2.46Zm8.41-12.67a1.77,1.77,0,0,1-2.37.71l-4.37-2.9a1.76,1.76,0,0,1-.26-2.45l3.5-5.28a1.76,1.76,0,0,1,2.36-.72l4.38,2.9a1.77,1.77,0,0,1,.26,2.46Zm8.4-12.67a1.76,1.76,0,0,1-2.36.71l-4.38-2.9a1.77,1.77,0,0,1-.26-2.46l3.5-5.28a1.77,1.77,0,0,1,2.37-.71l4.37,2.9a1.77,1.77,0,0,1,.26,2.46Z"/></svg>