<svg id="圖層_1" data-name="圖層 1" xmlns="http://www.w3.org/2000/svg" viewBox="0 0 1000 1000"><defs><style>.cls-1{fill:#252424;opacity:0.74;}.cls-2{fill:#fff;}</style></defs><title>SP</title><rect class="cls-1" width="1000" height="1000"/><path class="cls-2" d="M700.38,551.14H685.1a7.91,7.91,0,0,0-7.63,8.2v35.58h-7.64a2.66,2.66,0,0,0-2.55,2.73v16.42a2.66,2.66,0,0,0,2.55,2.74h7.64v35.57a7.91,7.91,0,0,0,7.63,8.2h15.28a7.92,7.92,0,0,0,7.64-8.2v-93A7.92,7.92,0,0,0,700.38,551.14Zm168,43.78h-7.64V559.34a7.92,7.92,0,0,0-7.64-8.2H837.87a7.91,7.91,0,0,0-7.64,8.2v93a7.91,7.91,0,0,0,7.64,8.2h15.27a7.92,7.92,0,0,0,7.64-8.2V616.81h7.64a2.66,2.66,0,0,0,2.54-2.74V597.65A2.65,2.65,0,0,0,868.42,594.92Zm-56-65.67H797.13a7.92,7.92,0,0,0-7.64,8.21v57.46H748.75V537.46a7.92,7.92,0,0,0-7.63-8.21H725.84a7.92,7.92,0,0,0-7.64,8.21V674.27a7.92,7.92,0,0,0,7.64,8.2h15.28a7.91,7.91,0,0,0,7.63-8.2V616.81h40.74v57.46a7.92,7.92,0,0,0,7.64,8.2h15.28a7.91,7.91,0,0,0,7.63-8.2V537.46A7.92,7.92,0,0,0,812.41,529.25Z"/><path class="cls-2" d="M146,444.85c1,12,7,21.74,21.8,21.74,12.52,0,19-7.67,19-18.72,0-10.67-6.09-15.86-19.34-21.81-20.07-8.73-26.23-17.51-26.23-30.86,0-18,11.13-33.53,33.62-33.53,24.18,0,33.24,16.8,32.86,33.38H192.31c-.66-8.14-3.71-18.32-18.8-18.32-9.73,0-16.75,5.94-16.75,16.35,0,8.14,5.32,12,18.51,17.91,19.59,8.67,27.56,18.37,27.56,34.49,0,23-15,36.39-37.23,36.39-23.73,0-35.13-15.39-35-37Z"/><path class="cls-2" d="M281.8,464.19,271.36,525H256.08l21.71-127c2.76-15.82,4.53-26.89,5.45-34.06h15c-.12,2.51-1.7,13.05-2.79,20C302,371.45,312,361.67,327.2,361.67c18.84,0,29.65,17.36,29.65,43.8,0,37.75-17.44,76.4-49.1,76.4C292.56,481.87,284.88,472.93,281.8,464.19Zm59.08-56.83c0-19.22-7.26-29.14-19.36-29.14-17.44,0-29.34,21.5-33.25,44.15-4.36,25.46.8,43.18,19.68,43.18C330.54,465.55,340.88,432.83,340.88,407.36Z"/><path class="cls-2" d="M504.42,409.45c0,30.52-13.94,72.42-49.73,72.42-22.54,0-35-17.73-35-46.61,0-32,15.77-73.59,49.41-73.59C490.34,361.67,504.42,378.73,504.42,409.45Zm-69,25.75c0,19.27,7.41,30.83,21,30.83,22.38,0,32.26-33,32.26-57.29,0-19.52-6.8-31.24-21-31.24C446.05,377.5,435.39,410.41,435.39,435.2Z"/><path class="cls-2" d="M578.39,398.19c1.9-11.34,3.86-23.59,5.4-34.24h14.66c-.19,3-1.64,14.56-3.41,24.44,6.79-16.34,18.5-26.72,32.75-26.72l-3.38,19.61c-17.76,1.62-31.14,18.23-35.55,44.15l-9.24,54.16H564.4Z"/><path class="cls-2" d="M681.7,364h15.45l5.76-33.38h15.15L712.37,364h19.85l-2.82,15.53H709.56l-11.82,70c-1.82,10.59-1.38,15.67,6.68,15.67a39.49,39.49,0,0,0,9.22-1L710.9,479c-4.34,1.84-8.88,2-13,2-14.67,0-19.33-8.8-16.07-28l12.48-73.53H678.88Z"/><path class="cls-2" d="M789.65,444.85c1,12,7,21.74,21.8,21.74,12.52,0,19-7.67,19-18.72,0-10.67-6.09-15.86-19.34-21.81-20.07-8.73-26.23-17.51-26.23-30.86,0-18,11.13-33.53,33.61-33.53,24.19,0,33.25,16.8,32.87,33.38H835.93c-.66-8.14-3.71-18.32-18.8-18.32-9.73,0-16.75,5.94-16.75,16.35,0,8.14,5.32,12,18.51,17.91,19.59,8.67,27.55,18.37,27.55,34.49,0,23-15,36.39-37.22,36.39-23.73,0-35.14-15.39-35-37Z"/></svg>