<svg id="圖層_1" data-name="圖層 1" xmlns="http://www.w3.org/2000/svg" viewBox="0 0 2000 300"><defs><style>.cls-1{opacity:0;}.cls-2{fill:#fff;}</style></defs><title>WCID</title><rect class="cls-1" width="2000" height="300"/><path class="cls-2" d="M234.2,99h18.12l5.42,36.53c1,8.25,2.16,16.49,3.18,24.74h.48c1.53-8.25,3.1-16.59,4.66-24.74L274.47,99h15l8.41,36.53c1.57,8,3.14,16.39,4.7,24.74h.48c1-8.35,2.12-16.69,3.15-24.74L311.63,99h16.89l-13.89,78.21H292.4l-7.65-35.52c-1.24-6-2.28-12.31-3.13-18.15h-.48c-.95,5.84-1.93,12.11-3.18,18.15l-7.4,35.52H248.72Z"/><path class="cls-2" d="M337.9,93.13h17.64v20.53l-.79,10.79c4.46-4.07,10.26-8.23,18.37-8.23,12.95,0,18.47,9.13,18.47,24v37H374v-34.7c0-8.56-2.3-11.24-7.39-11.24-4.43,0-7.14,2.06-11,5.78v40.16H337.9Z"/><path class="cls-2" d="M403.68,160.68c0-12.54,10-19.33,33.52-21.82-.35-5.2-2.95-8.6-9.41-8.6-5,0-10,2.1-15.75,5.37l-6.27-11.58c7.55-4.61,16.07-7.83,25.42-7.83,15.22,0,23.65,8.69,23.65,26.94v34H440.45l-1.27-6.1h-.44c-5,4.41-10.62,7.54-17.32,7.54C410.57,178.63,403.68,170.71,403.68,160.68Zm33.52-.78V149.5c-12.54,1.69-16.63,5.27-16.63,9.78,0,3.83,2.64,5.71,6.83,5.71C431.39,165,434.07,163,437.2,159.9Z"/><path class="cls-2" d="M469.88,155.55V131.5h-8.13V118.34l9.12-.68,2.06-15.81h14.59v15.81h14.27V131.5H487.52v23.83c0,6.75,3.07,9.46,7.71,9.46a17.58,17.58,0,0,0,5.66-1.13l2.78,12.81a42,42,0,0,1-13.23,2.16C475.73,178.63,469.88,169.34,469.88,155.55Z"/><path class="cls-2" d="M538.92,99h17.69v78.21H538.92Z"/><path class="cls-2" d="M575.5,110.8l-.6-15.9h17.81l-.59,15.9-3.49,23.92H579Z"/><path class="cls-2" d="M603.25,117.66H621l7.74,28.1c1.53,5.92,3.09,12.07,4.62,18.3h.48c1.52-6.23,3.09-12.38,4.61-18.3l7.75-28.1h16.89l-19.42,59.53H623.31Z"/><path class="cls-2" d="M667.92,147.45c0-19.32,13.78-31.23,28.08-31.23,17,0,25.35,12.32,25.35,28.57a39.88,39.88,0,0,1-.73,7.8H685c1.59,8.63,7.5,12.6,15.44,12.6,4.51,0,8.56-1.37,12.88-3.9l5.83,10.64a38.75,38.75,0,0,1-21.12,6.7C681.06,178.63,667.92,167.15,667.92,147.45Zm38.36-6.53c0-6.54-2.85-11.26-9.89-11.26-5.57,0-10.38,3.74-11.58,11.26Z"/><path class="cls-2" d="M754.47,147.45c0-19.47,12.16-31.23,24.69-31.23,6.57,0,10.57,2.44,14.6,6.21l-.64-9V93.13h17.64v84.06H796.37l-1.27-5.9h-.44c-4.21,4.21-10.09,7.34-15.84,7.34C764,178.63,754.47,166.89,754.47,147.45Zm38.65,11.41V134.42a14.46,14.46,0,0,0-9.85-3.77c-5.71,0-10.72,5.28-10.72,16.6,0,11.69,4,16.95,10.86,16.95C787.17,164.2,790.2,162.77,793.12,158.86Z"/><path class="cls-2" d="M822.83,147.45c0-19.8,13.94-31.23,29-31.23s29,11.43,29,31.23-13.93,31.18-29,31.18S822.83,167.2,822.83,147.45Zm39.92,0c0-10.31-3.62-17-10.92-17s-10.92,6.69-10.92,17,3.63,17,10.92,17S862.75,157.75,862.75,147.45Z"/><path class="cls-2" d="M892.89,117.66h14.39l1.27,7.54H909c5-4.82,11-9,19.13-9,12.94,0,18.46,9.13,18.46,24v37H928.94v-34.7c0-8.56-2.29-11.24-7.39-11.24-4.43,0-7.14,2.06-11,5.78v40.16H892.89Z"/><path class="cls-2" d="M958.07,147.45c0-19.32,13.78-31.23,28.08-31.23,17,0,25.36,12.32,25.36,28.57a39.72,39.72,0,0,1-.74,7.8H975.16c1.58,8.63,7.5,12.6,15.44,12.6,4.5,0,8.55-1.37,12.87-3.9l5.84,10.64a38.77,38.77,0,0,1-21.12,6.7C971.22,178.63,958.07,167.15,958.07,147.45Zm38.37-6.53c0-6.54-2.85-11.26-9.89-11.26-5.57,0-10.39,3.74-11.59,11.26Z"/><path class="cls-2" d="M1042.9,156.28c0-25.55,36.51-25.74,36.51-41,0-3.7-1.71-6.05-5.36-6.05-4,0-7.11,3.27-7.11,8.73,0,12.41,16.88,29.31,32.86,38.92,6.5,3.89,12.85,6.7,18,7.54l-4.21,14.23c-7.81-1.52-16.28-5.22-24.34-10.59-19.61-13-36.88-34.41-36.88-50,0-11.07,8.26-20.45,21.34-20.45,11.71,0,19.2,7,19.2,17.68,0,20.87-33.3,25.69-33.3,40,0,5.9,4.68,9.94,11.6,9.94,5.46,0,11.19-3.14,16.27-7.95A53.47,53.47,0,0,0,1101.28,133h16.06a84.44,84.44,0,0,1-17.74,32.14,40.1,40.1,0,0,1-30.62,13.5C1051.94,178.63,1042.9,168.3,1042.9,156.28Z"/><path class="cls-2" d="M1146.84,117.66h17.53l5.7,27.56c1,5.88,1.69,11.67,2.7,17.69h.48c1-6,2.09-12,3.53-17.69l6.49-27.56h15.32l6.69,27.56c1.44,5.88,2.48,11.67,3.73,17.69h.48c1-6,1.69-11.81,2.73-17.69l5.66-27.56h16.3L1220,177.19h-20.66l-5.46-23.79c-1.09-5.52-2.09-11-3.18-17.41h-.48c-1,6.41-1.89,11.93-3,17.45l-5.22,23.75h-20.18Z"/><path class="cls-2" d="M1244.85,93.13h17.63v20.53l-.79,10.79c4.46-4.07,10.27-8.23,18.38-8.23,13,0,18.47,9.13,18.47,24v37H1280.9v-34.7c0-8.56-2.3-11.24-7.39-11.24-4.44,0-7.14,2.06-11,5.78v40.16h-17.63Z"/><path class="cls-2" d="M1310.63,160.68c0-12.54,10-19.33,33.52-21.82-.35-5.2-3-8.6-9.41-8.6-5,0-10,2.1-15.75,5.37l-6.27-11.58c7.55-4.61,16.06-7.83,25.42-7.83,15.22,0,23.65,8.69,23.65,26.94v34H1347.4l-1.27-6.1h-.44c-5,4.41-10.63,7.54-17.32,7.54C1317.52,178.63,1310.63,170.71,1310.63,160.68Zm33.52-.78V149.5c-12.54,1.69-16.63,5.27-16.63,9.78,0,3.83,2.64,5.71,6.83,5.71C1338.34,165,1341,163,1344.15,159.9Z"/><path class="cls-2" d="M1376.83,155.55V131.5h-8.13V118.34l9.12-.68,2.06-15.81h14.59v15.81h14.27V131.5h-14.27v23.83c0,6.75,3.07,9.46,7.71,9.46a17.58,17.58,0,0,0,5.66-1.13l2.78,12.81a42,42,0,0,1-13.23,2.16C1382.68,178.63,1376.83,169.34,1376.83,155.55Z"/><path class="cls-2" d="M1445.87,99h17.68v78.21h-17.68Z"/><path class="cls-2" d="M1501.07,147.45c0-19.8,14.57-31.23,31-31.23a25.89,25.89,0,0,1,17.4,6.41L1541.14,134c-2.85-2.42-5.23-3.52-8.07-3.52-8.48,0-13.93,6.69-13.93,17s5.68,17,13.34,17c3.91,0,7.65-1.94,10.74-4.39l6.91,11.53a29.71,29.71,0,0,1-19.63,7.09C1513.88,178.63,1501.07,167.2,1501.07,147.45Z"/><path class="cls-2" d="M1556.63,160.68c0-12.54,10-19.33,33.52-21.82-.35-5.2-3-8.6-9.41-8.6-5,0-10,2.1-15.75,5.37l-6.28-11.58c7.56-4.61,16.07-7.83,25.43-7.83,15.22,0,23.65,8.69,23.65,26.94v34H1593.4l-1.27-6.1h-.44c-5,4.41-10.63,7.54-17.32,7.54C1563.51,178.63,1556.63,170.71,1556.63,160.68Zm33.52-.78V149.5c-12.54,1.69-16.63,5.27-16.63,9.78,0,3.83,2.64,5.71,6.83,5.71C1584.34,165,1587,163,1590.15,159.9Z"/><path class="cls-2" d="M1622.6,117.66H1637l1.27,7.54h.44c5-4.82,11-9,19.13-9,13,0,18.47,9.13,18.47,24v37h-17.64v-34.7c0-8.56-2.3-11.24-7.4-11.24-4.43,0-7.14,2.06-11,5.78v40.16H1622.6Z"/><path class="cls-2" d="M1712.18,147.45c0-19.47,12.15-31.23,24.69-31.23,6.56,0,10.57,2.44,14.59,6.21l-.63-9V93.13h17.64v84.06h-14.39l-1.27-5.9h-.44c-4.21,4.21-10.09,7.34-15.84,7.34C1721.74,178.63,1712.18,166.89,1712.18,147.45Zm38.65,11.41V134.42a14.46,14.46,0,0,0-9.85-3.77c-5.72,0-10.72,5.28-10.72,16.6,0,11.69,4,16.95,10.86,16.95C1744.88,164.2,1747.91,162.77,1750.83,158.86Z"/><path class="cls-2" d="M1780.54,147.45c0-19.8,13.94-31.23,29-31.23s29,11.43,29,31.23-13.94,31.18-29,31.18S1780.54,167.2,1780.54,147.45Zm39.92,0c0-10.31-3.62-17-10.92-17s-10.92,6.69-10.92,17,3.63,17,10.92,17S1820.46,157.75,1820.46,147.45Z"/></svg>