<svg id="圖層_1" data-name="圖層 1" xmlns="http://www.w3.org/2000/svg" viewBox="0 0 1920.21 559.78"><defs>
<style>.cls-1{fill:#fff; stroke:#191919}.cls-2{fill:#fff; stroke:#191919}</style></defs><title>WhatCanIdobg</title>
 <rect class="cls-1" x="1881.63" y="187.51" width="38" height="371"/>
 <path   d="M1919,709.61l.15,370-37,0-.15-370,37,0m1-1-39,0,.15,372,39,0-.15-372Z" transform="translate(0.09 -521.61)"/>
 <rect class="cls-1" x="1825.67" y="385.53" width="55" height="173"/>
 <path   d="M1880,907.63l.07,172-54,0-.07-172,54,0m1-1-56,0,.07,174,56,0-.07-174Z" transform="translate(0.09 -521.61)"/>
 <rect class="cls-1" x="1775.66" y="348.55" width="49" height="210"/>
 <path   d="M1824,870.65l.08,209-48,0-.08-209,48,0m1-1-50,0,.08,211,50,0-.08-211Z" transform="translate(0.09 -521.61)"/>
 <rect class="cls-1" x="1739.66" y="323.57" width="35" height="235"/>
 <path   d="M1774,845.67l.09,234h-34l-.09-234h34m1-1h-36l.09,236h36l-.09-236Z" transform="translate(0.09 -521.61)"/>
 <rect class="cls-1" x="1676.66" y="360.59" width="62" height="198"/>
 <path   d="M1738,882.68l.08,197-61,0-.08-197,61,0m1-1-63,0,.08,199,63,0-.08-199Z" transform="translate(0.09 -521.61)"/>
 <rect class="cls-1" x="1632.67" y="393.61" width="43" height="165"/>
 <path   d="M1675.05,915.71l.06,164-42,0-.06-164,42,0m1-1-44,0,.06,166,44,0-.06-166Z" transform="translate(0.09 -521.61)"/>
 <rect class="cls-1" x="1600.69" y="476.62" width="31" height="82"/>
 <path   d="M1631.08,998.73l0,81h-30l0-81h30m1-1h-32l0,83h32l0-83Z" transform="translate(0.09 -521.61)"/>
 <rect class="cls-1" x="1536.65" y="308.64" width="63" height="250"/>
 <path   d="M1599,830.74l.1,249-62,0-.1-249,62,0m1-1-64,0,.1,251,64,0-.1-251Z" transform="translate(0.09 -521.61)"/>
 <rect class="cls-1" x="1488.67" y="393.67" width="47" height="165"/>
 <path   d="M1535.05,915.77l.06,164-46,0-.06-164,46,0m1-1-48,0,.06,166,48,0-.06-166Z" transform="translate(0.09 -521.61)"/>
 <rect class="cls-1" x="1427.69" y="491.69" width="59" height="67"/>
 <path   d="M1486.09,1013.79l0,66-58,0,0-66,58,0m1-1-60,0,0,68,60,0,0-68Z" transform="translate(0.09 -521.61)"/>
 <rect class="cls-1" x="1376.69" y="508.71" width="50" height="50"/>
 <path   d="M1426.09,1030.81l0,49-49,0,0-49,49,0m1-1-51,0,0,51,51,0,0-51Z" transform="translate(0.09 -521.61)"/>
 <rect class="cls-1" x="1308.7" y="525.73" width="67" height="33"/>
 <path   d="M1375.1,1047.83v32l-66,0v-32l66,0m1-1-68,0v34l68,0v-34Z" transform="translate(0.09 -521.61)"/>
 <rect class="cls-1" x="1271.69" y="491.76" width="36" height="67"/>
 <path   d="M1307.09,1013.86l0,66h-35l0-66h35m1-1h-37l0,68h37l0-68Z" transform="translate(0.09 -521.61)"/>
 <rect class="cls-1" x="1200.7" y="517.78" width="70" height="41"/>
 <path   d="M1270.1,1039.87v40l-69,0v-40l69,0m1-1-71,0v42l71,0v-42Z" transform="translate(0.09 -521.61)"/>
 <rect class="cls-1" x="1148.69" y="491.8" width="51" height="67"/>
 <path   d="M1199.09,1013.9l0,66-50,0,0-66,50,0m1-1-52,0,0,68,52,0,0-68Z" transform="translate(0.09 -521.61)"/>
 <rect class="cls-1" x="1124.69" y="508.82" width="23" height="50"/>
 <path   d="M1147.09,1030.92l0,49h-22l0-49h22m1-1h-24l0,51h24l0-51Z" transform="translate(0.09 -521.61)"/>
 <rect class="cls-1" x="1039.7" y="538.84" width="84" height="20"/>
 <path   d="M1123.11,1060.93v19l-83,0v-19l83,0m1-1-85,0v21l85,0v-21Z" transform="translate(0.09 -521.61)"/>
 <rect class="cls-1" x="1008.69" y="476.86" width="30" height="82"/>
 <path   d="M1038.08,999l0,81h-29l0-81h29m1-1h-31l0,83h31l0-83Z" transform="translate(0.09 -521.61)"/>
 <rect class="cls-1" x="960.69" y="501.88" width="47" height="57"/>
 <path   d="M1007.09,1024l0,56-46,0,0-56,46,0m1-1-48,0,0,58,48,0,0-58Z" transform="translate(0.09 -521.61)"/>
 <rect class="cls-1" x="932.7" y="517.9" width="27" height="41"/>
 <path   d="M959.1,1040v40h-26v-40h26m1-1h-28v42h28v-42Z" transform="translate(0.09 -521.61)"/>
 <rect class="cls-1" x="890.69" y="485.91" width="41" height="73"/>
 <path   d="M931.08,1008l0,72-40,0,0-72,40,0m1-1-42,0,0,74,42,0,0-74Z" transform="translate(0.09 -521.61)"/>
 <rect class="cls-1" x="849.68" y="459.93" width="40" height="99"/>
 <path   d="M889.07,982l0,98h-39l0-98h39m1-1-41,0,0,100,41,0,0-100Z" transform="translate(0.09 -521.61)"/>
 <rect class="cls-1" x="807.69" y="476.94" width="41" height="82"/>
 <path   d="M848.08,999.05l0,81h-40l0-81h40m1-1h-42l0,83h42l0-83Z" transform="translate(0.09 -521.61)"/>
 <rect class="cls-1" x="757.68" y="454.96" width="49" height="104"/>
 <path   d="M806.07,977.06l0,103-48,0,0-103,48,0m1-1-50,0,0,105,50,0,0-105Z" transform="translate(0.09 -521.61)"/>
 <rect class="cls-1" x="718.68" y="412.98" width="38" height="146"/>
 <path   d="M756.05,935.08l.06,145-37,0-.06-145,37,0m1-1-39,0,.06,147,39,0-.06-147Z" transform="translate(0.09 -521.61)"/>
 <rect class="cls-1" x="678.68" y="442" width="39" height="117"/>
 <path   d="M717.07,964.1l0,116h-38l0-116h38m1-1h-40l0,118h40l0-118Z" transform="translate(0.09 -521.61)"/>
 <rect class="cls-1" x="621.68" y="413.02" width="56" height="146"/>
 <path   d="M677.05,935.11l.06,145-55,0-.06-145,55,0m1-1-57,0,.06,147,57,0-.06-147Z" transform="translate(0.09 -521.61)"/>
 <rect class="cls-1" x="581.68" y="455.04" width="39" height="104"/>
 <path   d="M620.07,977.14l0,103h-38l0-103h38m1-1h-40l0,105h40l0-105Z" transform="translate(0.09 -521.61)"/>
 <rect class="cls-1" x="518.67" y="365.06" width="62" height="194"/>
 <path   d="M580,887.15l.08,193-61,0-.08-193,61,0m1-1-63,0,.08,195,63,0-.08-195Z" transform="translate(0.09 -521.61)"/>
 <rect class="cls-1" x="444.68" y="413.08" width="73" height="146"/>
 <path   d="M517.05,935.18l.06,145-72,0-.06-145,72,0m1-1-74,0,.06,147,74,0-.06-147Z" transform="translate(0.09 -521.61)"/>
 <rect class="cls-1" x="369.65" y="296.12" width="74" height="263"/>
 <path   d="M443,818.21l.1,262-73,0-.1-262,73,0m1-1-75,0,.1,264,75,0-.1-264Z" transform="translate(0.09 -521.61)"/>
 <rect class="cls-1" x="305.64" y="244.14" width="63" height="315"/>
 <path   d="M368,766.24l.12,314-62,0-.12-314,62,0m1-1-64,0,.12,316,64,0-.12-316Z" transform="translate(0.09 -521.61)"/>
 <rect class="cls-1" x="257.66" y="321.17" width="47" height="238"/>
 <path   d="M304,843.27l.09,237-46,0-.09-237,46,0m1-1-48,0,.09,239,48,0-.09-239Z" transform="translate(0.09 -521.61)"/>
 <rect class="cls-1" x="192.66" y="354.19" width="64" height="205"/>
 <path   d="M256,876.29l.08,204-63,0-.08-204,63,0m1-1-65,0,.08,206,65,0-.08-206Z" transform="translate(0.09 -521.61)"/>
 <rect class="cls-1" x="138.61" y="84.21" width="53" height="475"/>
 <path   d="M190.92,606.31l.19,474-52,0-.19-474,52,0m1-1-54,0,.19,476,54,0-.19-476Z" transform="translate(0.09 -521.61)"/>
 <rect class="cls-1" x="80.64" y="219.24" width="57" height="340"/>
 <path   d="M137,741.33l.13,339-56,0-.13-339,56,0m1-1-58,0,.13,341,58,0-.13-341Z" transform="translate(0.09 -521.61)"/>
 <rect class="cls-1" x="0.6" y="55.26" width="79" height="504"/>
 <path   d="M78.91,577.36l.2,503-78,0-.2-503,78,0m1-1-80,0,.2,505,80,0-.2-505Z" transform="translate(0.09 -521.61)"/>
 <rect class="cls-1" x="1881.52" y="0.51" width="38" height="186"/>
 <path   d="M1918.89,522.61l.07,185-37,0-.07-185,37,0m1-1-39,0,.07,187,39,0-.07-187Z" transform="translate(0.09 -521.61)"/>
 <rect class="cls-1" x="1825.58" y="135.53" width="55" height="249"/>
 <path   d="M1879.94,657.63l.1,248-54,0-.1-248,54,0m1-1-56,0,.1,250,56,0-.1-250Z" transform="translate(0.09 -521.61)"/>
 <rect class="cls-1" x="1739.59" y="231.57" width="35" height="91"/>
 <path   d="M1774,753.67l0,90h-34l0-90h34m1-1h-36l0,92h36l0-92Z" transform="translate(0.09 -521.61)"/>
 <rect class="cls-1" x="1676.6" y="260.59" width="62" height="99"/>
 <path   d="M1738,782.68l0,98-61,0,0-98,61,0m1-1-63,0,0,100,63,0,0-100Z" transform="translate(0.09 -521.61)"/>
 <rect class="cls-1" x="1536.58" y="179.64" width="63" height="128"/>
 <path   d="M1599,701.74l0,127-62,0,0-127,62,0m1-1-64,0,0,129,64,0,0-129Z" transform="translate(0.09 -521.61)"/>
 <rect class="cls-1" x="1488.61" y="266.67" width="47" height="126"/>
 <path   d="M1535,788.77l.06,125-46,0-.06-125,46,0m1-1-48,0,.06,127,48,0-.06-127Z" transform="translate(0.09 -521.61)"/>
 <rect class="cls-1" x="1427.66" y="412.69" width="60" height="78"/>
 <path   d="M1487.05,934.79l0,77-59,0,0-77,59,0m1-1-61,0,0,79,61,0,0-79Z" transform="translate(0.09 -521.61)"/>
 <rect class="cls-1" x="1376.67" y="434.71" width="50" height="73"/>
 <path   d="M1426.06,956.81l0,72-49,0,0-72,49,0m1-1-51,0,0,74,51,0,0-74Z" transform="translate(0.09 -521.61)"/>
 <rect class="cls-1" x="225.62" y="337.18" width="31" height="16"/>
 <path   d="M256,859.29v15H226v-15h30m1-1H225v17h32v-17Z" transform="translate(0.09 -521.61)"/>
 <rect class="cls-1" x="80.56" y="190.24" width="28" height="28"/>
 <path   d="M108,712.35v27H81v-27h27m1-1H80l0,29h29l0-29Z" transform="translate(0.09 -521.61)"/>
 <rect class="cls-1" x="581.65" y="390.04" width="39" height="64"/>
 <path   d="M620,912.14l0,63h-38l0-63h38m1-1H581l0,65h40l0-65Z" transform="translate(0.09 -521.61)"/>
 <rect class="cls-1" x="369.61" y="296.12" width="48" height="57"/>
 <path   d="M417,818.22l0,56-47,0,0-56,47,0m1-1-49,0,0,58,49,0,0-58Z" transform="translate(0.09 -521.61)"/>
 <rect class="cls-1" x="337.58" y="248.14" width="31" height="31"/>
 <path   d="M368,770.24v30H338v-30h30m1-1H337v32h32v-32Z" transform="translate(0.09 -521.61)"/>
 <rect class="cls-1" x="59.59" y="130.89" width="20" height="234"/>
 <path   d="M79,653V886H60V653H79m1-1H59V887H80V652Z" transform="translate(0.09 -521.61)"/>
 <rect class="cls-1" x="0.59" y="258.89" width="19" height="299"/>
 <path   d="M19,781v298H1V781H19m1-1H0v300H20V780Z" transform="translate(0.09 -521.61)"/>
 <rect class="cls-1" x="59.59" y="456.89" width="20" height="60"/>
 <path   d="M79,979v59H60V979H79m1-1H59v61H80V978Z" transform="translate(0.09 -521.61)"/>
 <rect class="cls-1" x="10.59" y="80.89" width="29" height="36"/>
 <path   d="M39,603v35H11V603H39m1-1H10v37H40V602Z" transform="translate(0.09 -521.61)"/>
 <rect class="cls-1" x="165.59" y="263.89" width="26" height="51"/>
 <path   d="M191,786v50H166V786h25m1-1H165v52h27V785Z" transform="translate(0.09 -521.61)"/>
 <rect class="cls-1" x="113.59" y="401.89" width="24" height="24"/>
 <path   d="M137,924v23H114V924h23m1-1H113v25h25V923Z" transform="translate(0.09 -521.61)"/>
 <rect class="cls-1" x="305.59" y="451.89" width="41" height="73"/>
 <path   d="M346,974v72H306V974h40m1-1H305v74h42V973Z" transform="translate(0.09 -521.61)"/>
 <rect class="cls-1" x="499.59" y="440.89" width="18" height="59"/>
 <path   d="M517,963v58H500V963h17m1-1H499v60h19V962Z" transform="translate(0.09 -521.61)"/>
 <rect class="cls-1" x="1536.59" y="315.89" width="31" height="222"/>
 <path   d="M1567,838v221h-30V838h30m1-1h-32v223h32V837Z" transform="translate(0.09 -521.61)"/>
 <rect class="cls-1" x="1701.59" y="360.89" width="37" height="172"/>
 <path   d="M1738,883v171h-36V883h36m1-1h-38v173h38V882Z" transform="translate(0.09 -521.61)"/>
 <rect class="cls-1" x="1853.59" y="135.89" width="27" height="174"/>
 <path   d="M1880,658V831h-26V658h26m1-1h-28V832h28V657Z" transform="translate(0.09 -521.61)"/>
 <rect class="cls-1" x="1886.59" y="446.89" width="18" height="53"/>
 <path   d="M1904,969v52h-17V969h17m1-1h-19v54h19V968Z" transform="translate(0.09 -521.61)"/>
 <rect class="cls-1" x="1795.59" y="348.89" width="24" height="24"/>
 <path   d="M1819,871v23h-23V871h23m1-1h-25v25h25V870Z" transform="translate(0.09 -521.61)"/>
 <rect class="cls-1" x="1148.59" y="495.89" width="34" height="34"/>
 <path   d="M1182,1018v33h-33v-33h33m1-1h-35v35h35v-35Z" transform="translate(0.09 -521.61)"/></svg>